<svg version="1.1" id="Layer_1" xmlns="http://www.w3.org/2000/svg" xmlns:xlink="http://www.w3.org/1999/xlink" x="0px" y="0px"
	 width="100%" viewBox="0 0 352 352" enable-background="new 0 0 352 352" xml:space="preserve">
<path fill="#000000" opacity="1.000000" stroke="none" 
	d="
M117.417938,183.632233 
	C123.781776,170.734421 125.521431,157.298553 127.186043,143.554428 
	C128.506027,132.655777 132.070679,121.763229 141.378418,114.059326 
	C144.507614,111.469337 145.573410,107.313438 146.965103,103.571548 
	C151.207794,92.164207 156.936356,82.205154 167.234344,74.641663 
	C174.629288,69.210342 180.266251,61.386700 186.695129,54.637592 
	C187.728546,53.552704 188.705826,52.383778 189.874451,51.463768 
	C194.083115,48.150410 197.536545,49.581970 198.311981,54.884178 
	C198.785522,58.122211 197.663940,61.557426 199.552551,64.901550 
	C204.714081,64.707047 207.561188,60.032681 212.144897,58.132732 
	C214.052826,61.205009 211.873672,63.382607 210.860291,65.550140 
	C206.876846,74.070328 206.882492,74.435677 214.416580,79.798508 
	C218.244995,82.523605 221.724350,85.605103 224.577866,89.342361 
	C225.479080,90.522690 226.765488,91.854034 226.821487,93.161407 
	C227.152252,100.884338 231.197693,106.902351 235.026886,113.197701 
	C238.224228,118.454269 234.248734,123.135490 231.535309,126.847275 
	C227.142853,132.855835 221.910843,138.471451 212.820633,136.389954 
	C208.829071,135.475952 206.563263,138.252258 207.396622,142.042740 
	C212.347092,164.559799 207.632706,188.054291 214.431595,210.364777 
	C215.350815,213.381210 216.155045,216.339142 217.871246,219.122574 
	C229.000412,237.172546 234.062546,256.082214 225.863693,276.905579 
	C221.956497,286.829071 222.182007,286.882874 232.629333,289.923889 
	C236.980011,291.190277 241.340851,292.318604 245.890228,291.351868 
	C251.354126,290.190765 253.342133,286.909943 252.217529,281.462708 
	C251.374420,277.378967 249.157867,274.138824 246.366669,271.186218 
	C244.194458,268.888397 241.870544,266.676880 240.725632,263.628937 
	C238.751083,258.372375 242.219635,253.678879 247.678101,254.895523 
	C262.383606,258.173279 273.718933,272.712250 272.669586,286.965790 
	C271.472748,303.222473 258.621155,313.863739 242.777603,312.523499 
	C234.822769,311.850555 226.889633,310.923706 218.944046,310.138245 
	C215.620071,309.809662 212.864548,310.041412 211.467789,314.070038 
	C210.232208,317.633820 206.841370,318.627197 203.240128,318.385742 
	C200.565948,318.206482 198.705963,318.804718 197.096588,321.407288 
	C194.279266,325.963226 189.244293,325.818848 184.574936,326.011475 
	C183.595993,326.051849 182.606506,325.687653 181.614304,325.579193 
	C176.298172,324.998047 171.231659,323.922699 165.590439,325.191254 
	C158.366028,326.815948 150.600525,327.084991 145.203842,319.802216 
	C144.074036,318.277527 141.852020,318.495880 140.034622,318.413696 
	C137.584106,318.302887 134.715256,317.776001 133.936691,315.661041 
	C132.113419,310.708099 127.744766,309.684967 123.985329,307.221313 
	C118.749496,303.790192 114.463394,298.902161 113.557678,292.047485 
	C113.048233,288.191803 111.174347,284.802216 109.481163,281.361481 
	C103.806885,269.830811 102.046303,258.561066 105.512344,245.310806 
	C109.617149,229.618607 115.403305,213.986664 114.806625,197.201828 
	C114.651741,192.844620 116.419701,188.419052 117.417938,183.632233 
z"/>
</svg>