<?xml version="1.0" encoding="UTF-8" standalone="no"?>
<!-- Created with Inkscape (http://www.inkscape.org/) -->

<svg
   width="20.637501mm"
   height="16.933332mm"
   viewBox="0 0 20.637501 16.933332"
   version="1.1"
   id="svg1"
   xml:space="preserve"
   inkscape:version="1.4.3 (0d15f75, 2025-12-25)"
   sodipodi:docname="cat_walk.svg"
   inkscape:export-filename="cat_walk.svg"
   inkscape:export-xdpi="96"
   inkscape:export-ydpi="96"
   xmlns:inkscape="http://www.inkscape.org/namespaces/inkscape"
   xmlns:sodipodi="http://sodipodi.sourceforge.net/DTD/sodipodi-0.dtd"
   xmlns="http://www.w3.org/2000/svg"
   xmlns:svg="http://www.w3.org/2000/svg"><sodipodi:namedview
     id="namedview1"
     pagecolor="#505050"
     bordercolor="#ffffff"
     borderopacity="1"
     inkscape:showpageshadow="0"
     inkscape:pageopacity="0"
     inkscape:pagecheckerboard="1"
     inkscape:deskcolor="#505050"
     inkscape:document-units="mm"
     inkscape:zoom="8.1336326"
     inkscape:cx="26.37198"
     inkscape:cy="15.183867"
     inkscape:window-width="1904"
     inkscape:window-height="993"
     inkscape:window-x="252"
     inkscape:window-y="106"
     inkscape:window-maximized="0"
     inkscape:current-layer="layer1" /><defs
     id="defs1" /><g
     inkscape:label="Layer 1"
     inkscape:groupmode="layer"
     id="layer1"
     transform="translate(-94.720833,-139.96458)"><path
       fill="#000000"
       opacity="1"
       stroke="none"
       d="m 103.41078,148.68327 c 0.30969,-0.62764 0.39435,-1.28149 0.47536,-1.95033 0.0642,-0.53035 0.2377,-1.06042 0.69066,-1.43531 0.15226,-0.12605 0.20413,-0.3283 0.27185,-0.51039 0.20646,-0.55511 0.48524,-1.03975 0.98638,-1.40782 0.35985,-0.26431 0.63417,-0.64503 0.94702,-0.97347 0.0503,-0.0529 0.0978,-0.10968 0.15472,-0.15443 0.2048,-0.16125 0.37286,-0.0916 0.41059,0.16643 0.0231,0.15757 -0.0316,0.32475 0.0604,0.48748 0.25117,-0.009 0.38972,-0.23694 0.61279,-0.32938 0.0928,0.1495 -0.0132,0.25547 -0.0625,0.36095 -0.19385,0.41462 -0.19358,0.43239 0.17306,0.69338 0.18631,0.13261 0.35563,0.28256 0.49449,0.46443 0.0438,0.0574 0.10645,0.12222 0.10917,0.18585 0.0161,0.37582 0.21296,0.66867 0.39931,0.97503 0.15559,0.2558 -0.0379,0.4836 -0.16992,0.66424 -0.21375,0.29239 -0.46836,0.56567 -0.91073,0.46438 -0.19422,-0.0445 -0.30449,0.0906 -0.26393,0.27507 0.2409,1.09575 0.0115,2.23908 0.34233,3.32479 0.0446,0.14678 0.0838,0.29073 0.16739,0.42618 0.54159,0.87838 0.78793,1.79858 0.38894,2.81191 -0.19014,0.48292 -0.17915,0.48554 0.32924,0.63353 0.21173,0.0617 0.42393,0.11653 0.64531,0.0695 0.26591,-0.0564 0.36265,-0.21615 0.30792,-0.48124 -0.0411,-0.19872 -0.1489,-0.35641 -0.28472,-0.50008 -0.10571,-0.11182 -0.21879,-0.21944 -0.27451,-0.36776 -0.0961,-0.25581 0.0727,-0.48421 0.33833,-0.42501 0.71561,0.15952 1.26723,0.86703 1.21617,1.56064 -0.0584,0.79113 -0.68365,1.30897 -1.45466,1.24374 -0.3871,-0.0328 -0.77315,-0.078 -1.15981,-0.11609 -0.16176,-0.016 -0.29586,-0.004 -0.36382,0.19134 -0.0601,0.17344 -0.22514,0.22177 -0.40038,0.21002 -0.13014,-0.009 -0.22066,0.0204 -0.29898,0.14705 -0.13709,0.2217 -0.38211,0.21467 -0.60935,0.22405 -0.0476,0.002 -0.0958,-0.0158 -0.14405,-0.0211 -0.25872,-0.0283 -0.50527,-0.0807 -0.77979,-0.0189 -0.35156,0.0791 -0.72945,0.0921 -0.99208,-0.26225 -0.055,-0.0742 -0.16311,-0.0635 -0.25155,-0.0676 -0.11925,-0.005 -0.25887,-0.0311 -0.29675,-0.13396 -0.0888,-0.24102 -0.30132,-0.29081 -0.48427,-0.4107 -0.25479,-0.16697 -0.46337,-0.40484 -0.50744,-0.7384 -0.0248,-0.18764 -0.11598,-0.35258 -0.19838,-0.52003 -0.27613,-0.56111 -0.36181,-1.10954 -0.19314,-1.75434 0.19976,-0.76365 0.48133,-1.52434 0.4523,-2.34115 -0.008,-0.21204 0.0785,-0.4274 0.12707,-0.66034 z"
       id="path1"
       style="display:inline;stroke-width:0.0486635" /></g></svg>
