<svg version="1.1" id="Layer_1" xmlns="http://www.w3.org/2000/svg" xmlns:xlink="http://www.w3.org/1999/xlink" x="0px" y="0px"
	 width="100%" viewBox="0 0 432 352" enable-background="new 0 0 432 352" xml:space="preserve">
<path fill="#000000" opacity="1.000000" stroke="none" 
	d="
M164.939117,174.046936 
	C168.845169,167.732758 169.964478,161.319031 169.842972,154.223938 
	C169.642410,142.514496 172.022034,130.336853 179.331894,121.692039 
	C188.226410,111.173172 191.846786,98.367126 198.839615,87.184433 
	C200.895691,83.896416 203.229401,80.952560 206.431427,78.679344 
	C214.781067,72.751625 221.297729,64.913651 228.245407,57.526936 
	C230.183716,55.466137 232.031601,53.276176 234.203415,51.488644 
	C238.237152,48.168655 240.995560,49.395126 242.399567,54.539986 
	C243.370529,58.097942 241.842346,61.770874 243.089172,65.575317 
	C248.392334,64.674004 251.379532,60.026558 256.092194,58.116829 
	C257.847565,61.709930 255.444199,64.114838 254.318039,66.630745 
	C251.101944,73.815552 251.118408,74.316635 257.398621,79.051590 
	C260.862274,81.662987 264.274994,84.310043 267.142792,87.607445 
	C269.377533,90.177002 271.010254,92.916939 271.397797,96.434158 
	C271.898041,100.974144 273.767303,105.038963 276.307343,108.850708 
	C281.289093,116.326698 280.678009,121.567032 274.539978,128.336502 
	C269.675446,133.701447 264.715698,138.189896 256.496033,136.401230 
	C252.626572,135.559204 250.745010,138.659561 251.439346,141.996979 
	C256.199188,164.875793 251.994522,188.650894 258.493042,211.337799 
	C259.324066,214.239014 260.069550,217.138733 262.163513,219.440613 
	C266.090698,223.757721 267.657532,229.122223 269.575409,234.505219 
	C275.194275,250.275864 275.344513,265.615051 268.424164,281.066315 
	C265.927338,286.641113 266.553253,287.098511 272.675415,288.904602 
	C277.632629,290.367035 282.613892,291.886658 287.846893,291.610718 
	C295.190735,291.223541 297.806305,287.272308 295.860992,280.169342 
	C294.660706,275.786652 291.743561,272.646423 288.833527,269.419678 
	C283.949249,264.003815 283.026398,260.418182 285.484070,257.078094 
	C287.823639,253.898499 291.950043,253.941406 298.231354,257.210632 
	C316.383301,266.658112 321.860382,286.211182 310.796936,302.146088 
	C306.550079,308.262878 300.656433,311.712402 293.265442,312.326477 
	C285.087585,313.005829 276.977234,312.078857 268.892792,310.849243 
	C266.266083,310.449738 263.601562,310.265411 260.947205,310.091339 
	C258.612183,309.938202 256.871246,310.580383 255.901810,313.135712 
	C254.421631,317.037231 251.205902,318.505066 247.134613,318.396606 
	C245.147202,318.343658 243.181168,318.264069 241.890060,320.415039 
	C238.408752,326.214905 232.666077,326.606110 226.915848,325.899323 
	C220.412186,325.099945 214.234833,324.304871 207.446533,325.513916 
	C201.272690,326.613525 193.513931,327.177948 189.313614,319.588104 
	C188.546204,318.201447 186.954529,318.640472 185.647919,318.651062 
	C180.815948,318.690216 177.176727,316.936554 175.820450,311.947571 
	C175.359070,310.250427 174.279617,309.704132 172.694351,309.218658 
	C164.263351,306.636780 159.588547,300.520386 157.682755,292.226257 
	C156.733459,288.094940 154.927002,284.402008 153.136597,280.647522 
	C147.929443,269.728119 145.869476,259.083099 149.194427,246.502594 
	C152.053726,235.683975 156.546692,225.046326 157.394791,213.831436 
	C158.098267,204.528809 158.519669,195.271622 160.638443,186.145355 
	C161.589417,182.049194 163.126572,178.212723 164.939117,174.046936 
z"/>
</svg>