<svg version="1.1" id="Layer_1" xmlns="http://www.w3.org/2000/svg" xmlns:xlink="http://www.w3.org/1999/xlink" x="0px" y="0px"
	 width="100%" viewBox="0 0 350 350" enable-background="new 0 0 350 350" xml:space="preserve">
<path fill="#FBFBFB" opacity="1.000000" stroke="none" 
	d="
M230.000000,351.000000 
	C153.333344,351.000000 77.166695,351.000000 1.000031,351.000000 
	C1.000021,234.333374 1.000021,117.666733 1.000010,1.000078 
	C117.666618,1.000052 234.333237,1.000052 350.999878,1.000026 
	C350.999939,117.666595 350.999939,234.333191 350.999969,350.999878 
	C310.833344,351.000000 270.666656,351.000000 230.000000,351.000000 
M128.933929,320.428558 
	C141.056686,322.491394 153.121597,325.058075 165.320419,326.458344 
	C175.161499,327.588043 176.744019,325.918091 179.485382,316.672821 
	C180.385254,316.530212 181.351700,316.292175 182.328537,316.236450 
	C187.404617,315.947021 191.776566,316.066345 192.936554,322.916748 
	C193.333237,325.259338 196.824646,328.161957 199.407410,328.817322 
	C204.292145,330.056824 209.594589,330.506714 214.629410,330.105286 
	C223.000854,329.437805 224.528351,327.381042 225.300278,318.953033 
	C225.339111,318.529022 225.699600,318.134491 225.732056,318.071625 
	C228.305832,320.292572 230.318634,323.487854 232.752823,323.849884 
	C239.413162,324.840485 246.276535,325.111816 253.009735,324.747650 
	C257.790527,324.489044 260.160583,320.505585 258.893311,316.123169 
	C257.976349,312.952240 255.629272,308.722351 252.951675,307.811615 
	C245.205139,305.176880 243.731262,299.356445 244.214417,292.913330 
	C245.706406,273.017487 246.647141,252.977097 249.928741,233.348404 
	C253.040085,214.738190 259.163391,196.651184 263.353912,178.195984 
	C267.205017,161.235809 269.778168,143.935349 265.454102,126.734230 
	C262.985931,116.915848 264.329224,108.094582 267.894043,99.027191 
	C271.103149,90.864510 273.143799,82.116776 270.151093,73.667839 
	C266.799103,64.204529 268.483765,55.080494 269.464844,45.713898 
	C270.205231,38.645374 271.041168,31.459223 270.515289,24.424042 
	C270.052338,18.230875 265.909454,16.895275 261.212280,21.099180 
	C255.943375,25.814810 250.886459,30.879150 246.430893,36.356014 
	C242.916626,40.675816 239.265488,42.500164 233.661957,41.813423 
	C228.927841,41.233234 223.922028,41.217602 219.264114,42.123161 
	C214.400513,43.068699 211.511795,41.393974 208.473480,38.008694 
	C203.732407,32.726204 198.938477,27.350002 193.423355,22.944357 
	C188.256454,18.816875 183.968109,20.938643 183.682739,27.524237 
	C183.374680,34.633263 183.836243,41.799347 184.346909,48.912914 
	C184.784241,55.004494 186.302826,61.050575 186.375885,67.128403 
	C186.477097,75.549675 185.428741,83.979469 185.347046,92.410210 
	C185.298126,97.459381 185.376114,102.261330 182.499176,106.792412 
	C179.575546,111.397064 177.386688,116.468040 174.466339,121.075073 
	C172.973816,123.429657 170.956787,126.017059 168.544327,127.137894 
	C135.600266,142.443848 119.848557,170.588303 110.946243,203.836060 
	C108.029526,214.729218 105.835907,225.815811 102.927963,236.711548 
	C100.424591,246.091370 97.912354,255.382111 99.745132,265.214752 
	C100.810768,270.931793 101.705574,276.683197 102.892982,282.374146 
	C103.700539,286.244598 103.094795,288.547913 98.592857,289.487976 
	C86.666122,291.978485 74.703354,292.081787 62.865505,289.811859 
	C56.258087,288.544922 49.717766,286.277466 44.828030,280.937164 
	C36.422031,271.756622 34.664906,257.548004 40.536003,245.583282 
	C42.650459,241.274261 44.911392,236.982224 46.437389,232.457123 
	C47.609253,228.982162 47.705162,225.075562 44.352367,222.356628 
	C40.786869,219.465210 37.403858,221.283478 34.286743,223.335205 
	C32.510426,224.504379 30.804993,225.940033 29.458178,227.577011 
	C21.124924,237.705734 16.944302,249.527878 16.888588,262.504700 
	C16.774429,289.094635 35.103996,309.264069 61.902386,311.763092 
	C76.300911,313.105835 90.811157,313.230042 105.263641,314.035950 
	C107.535690,314.162659 109.798256,314.887238 112.013664,315.516754 
	C117.385529,317.043274 122.727005,318.676727 128.933929,320.428558 
z"/>
<path fill="#030303" opacity="1.000000" stroke="none" 
	d="
M128.507324,320.347839 
	C122.727005,318.676727 117.385529,317.043274 112.013664,315.516754 
	C109.798256,314.887238 107.535690,314.162659 105.263641,314.035950 
	C90.811157,313.230042 76.300911,313.105835 61.902386,311.763092 
	C35.103996,309.264069 16.774429,289.094635 16.888588,262.504700 
	C16.944302,249.527878 21.124924,237.705734 29.458178,227.577011 
	C30.804993,225.940033 32.510426,224.504379 34.286743,223.335205 
	C37.403858,221.283478 40.786869,219.465210 44.352367,222.356628 
	C47.705162,225.075562 47.609253,228.982162 46.437389,232.457123 
	C44.911392,236.982224 42.650459,241.274261 40.536003,245.583282 
	C34.664906,257.548004 36.422031,271.756622 44.828030,280.937164 
	C49.717766,286.277466 56.258087,288.544922 62.865505,289.811859 
	C74.703354,292.081787 86.666122,291.978485 98.592857,289.487976 
	C103.094795,288.547913 103.700539,286.244598 102.892982,282.374146 
	C101.705574,276.683197 100.810768,270.931793 99.745132,265.214752 
	C97.912354,255.382111 100.424591,246.091370 102.927963,236.711548 
	C105.835907,225.815811 108.029526,214.729218 110.946243,203.836060 
	C119.848557,170.588303 135.600266,142.443848 168.544327,127.137894 
	C170.956787,126.017059 172.973816,123.429657 174.466339,121.075073 
	C177.386688,116.468040 179.575546,111.397064 182.499176,106.792412 
	C185.376114,102.261330 185.298126,97.459381 185.347046,92.410210 
	C185.428741,83.979469 186.477097,75.549675 186.375885,67.128403 
	C186.302826,61.050575 184.784241,55.004494 184.346909,48.912914 
	C183.836243,41.799347 183.374680,34.633263 183.682739,27.524237 
	C183.968109,20.938643 188.256454,18.816875 193.423355,22.944357 
	C198.938477,27.350002 203.732407,32.726204 208.473480,38.008694 
	C211.511795,41.393974 214.400513,43.068699 219.264114,42.123161 
	C223.922028,41.217602 228.927841,41.233234 233.661957,41.813423 
	C239.265488,42.500164 242.916626,40.675816 246.430893,36.356014 
	C250.886459,30.879150 255.943375,25.814810 261.212280,21.099180 
	C265.909454,16.895275 270.052338,18.230875 270.515289,24.424042 
	C271.041168,31.459223 270.205231,38.645374 269.464844,45.713898 
	C268.483765,55.080494 266.799103,64.204529 270.151093,73.667839 
	C273.143799,82.116776 271.103149,90.864510 267.894043,99.027191 
	C264.329224,108.094582 262.985931,116.915848 265.454102,126.734230 
	C269.778168,143.935349 267.205017,161.235809 263.353912,178.195984 
	C259.163391,196.651184 253.040085,214.738190 249.928741,233.348404 
	C246.647141,252.977097 245.706406,273.017487 244.214417,292.913330 
	C243.731262,299.356445 245.205139,305.176880 252.951675,307.811615 
	C255.629272,308.722351 257.976349,312.952240 258.893311,316.123169 
	C260.160583,320.505585 257.790527,324.489044 253.009735,324.747650 
	C246.276535,325.111816 239.413162,324.840485 232.752823,323.849884 
	C230.318634,323.487854 228.305832,320.292572 225.732056,318.071625 
	C225.699600,318.134491 225.339111,318.529022 225.300278,318.953033 
	C224.528351,327.381042 223.000854,329.437805 214.629410,330.105286 
	C209.594589,330.506714 204.292145,330.056824 199.407410,328.817322 
	C196.824646,328.161957 193.333237,325.259338 192.936554,322.916748 
	C191.776566,316.066345 187.404617,315.947021 182.328537,316.236450 
	C181.351700,316.292175 180.385254,316.530212 179.485382,316.672821 
	C176.744019,325.918091 175.161499,327.588043 165.320419,326.458344 
	C153.121597,325.058075 141.056686,322.491394 128.507324,320.347839 
M222.880447,290.665985 
	C222.458389,289.521118 222.036331,288.376251 221.188934,286.077637 
	C218.511383,290.309265 216.395691,293.652954 214.009323,297.424408 
	C217.345428,298.748138 219.957947,299.784729 223.054459,301.013397 
	C223.054459,297.277893 223.054459,294.357086 222.880447,290.665985 
z"/>
<path fill="#D7D8D8" opacity="1.000000" stroke="none" 
	d="
M222.967453,291.051147 
	C223.054459,294.357086 223.054459,297.277893 223.054459,301.013397 
	C219.957947,299.784729 217.345428,298.748138 214.009323,297.424408 
	C216.395691,293.652954 218.511383,290.309265 221.188934,286.077637 
	C222.036331,288.376251 222.458389,289.521118 222.967453,291.051147 
z"/>
</svg>