<?xml version="1.0" encoding="UTF-8" standalone="no"?>
<!-- Created with Inkscape (http://www.inkscape.org/) -->

<svg
   version="1.1"
   id="svg1"
   width="550"
   height="352"
   viewBox="0 0 550 352"
   sodipodi:docname="cat_run.svg"
   inkscape:version="1.4.3 (0d15f75, 2025-12-25)"
   xmlns:inkscape="http://www.inkscape.org/namespaces/inkscape"
   xmlns:sodipodi="http://sodipodi.sourceforge.net/DTD/sodipodi-0.dtd"
   xmlns="http://www.w3.org/2000/svg"
   xmlns:svg="http://www.w3.org/2000/svg">
  <defs
     id="defs1" />
  <sodipodi:namedview
     id="namedview1"
     pagecolor="#505050"
     bordercolor="#ffffff"
     borderopacity="1"
     inkscape:showpageshadow="0"
     inkscape:pageopacity="0"
     inkscape:pagecheckerboard="1"
     inkscape:deskcolor="#505050"
     inkscape:zoom="1.1463068"
     inkscape:cx="333.24412"
     inkscape:cy="231.61338"
     inkscape:window-width="1920"
     inkscape:window-height="1009"
     inkscape:window-x="2552"
     inkscape:window-y="161"
     inkscape:window-maximized="1"
     inkscape:current-layer="g1" />
  <g
     inkscape:groupmode="layer"
     inkscape:label="Image"
     id="g1">
    <path
       style="fill:#000000"
       d="m 274.5,320.33135 c -5.5,-0.86075 -10.15,-1.96243 -10.33333,-2.44817 -0.18334,-0.48575 -1.08334,-0.88595 -2,-0.88934 -0.91667,-0.003 -2.82166,-0.6089 -4.23332,-1.34558 -1.41166,-0.73667 -3.77416,-1.64247 -5.25,-2.01289 C 251.20751,313.26496 250,312.52047 250,311.98095 250,311.44143 249.39385,311 248.65301,311 c -0.74084,0 -2.3847,-0.9 -3.65301,-2 -1.26831,-1.1 -2.86402,-2 -3.54602,-2 -0.682,0 -1.49902,-0.675 -1.81561,-1.5 -0.31658,-0.825 -1.26472,-1.5 -2.10699,-1.5 C 236.68912,304 236,303.55 236,303 c 0,-0.55 -0.68912,-1 -1.53138,-1 -0.84227,0 -1.79041,-0.675 -2.10699,-1.5 -0.31659,-0.825 -1.20246,-1.5 -1.96862,-1.5 C 229.62686,299 229,298.29844 229,297.44098 c 0,-0.85746 -0.36807,-1.33154 -0.81793,-1.05351 C 226.98079,297.1299 220,290.07082 220,288.11363 c 0,-0.53392 -0.73713,-1.7079 -1.63807,-2.60884 -1.45759,-1.45759 -1.48513,-2.09897 -0.25,-5.82143 1.71331,-5.16357 1.94349,-28.38979 0.29204,-29.46787 -0.60281,-0.39352 -1.39889,-1.95299 -1.76905,-3.46549 C 216.26476,245.2375 215.52047,244 214.98095,244 214.44143,244 214,243.325 214,242.5 c 0,-0.825 -0.5625,-1.50208 -1.25,-1.50463 -0.6875,-0.003 -2.68809,-1.35254 -4.44577,-3 C 206.54656,236.34792 204.68221,235 204.16122,235 c -0.52098,0 -1.21721,-0.70352 -1.54717,-1.56338 -0.32996,-0.85986 -0.97283,-1.33291 -1.42861,-1.05123 -0.45577,0.28169 -1.53314,-0.25229 -2.39415,-1.18662 C 197.93028,230.26445 195.34145,227.925 193.03833,226 187.45826,221.33604 182,216.15647 182,215.52527 c 0,-0.28053 -1.0125,-1.66099 -2.25,-3.06769 -3.18657,-3.62225 -7.74747,-12.34378 -7.76365,-14.84595 -0.0281,-4.33839 -1.18672,-6.61212 -3.35298,-6.57983 -2.38267,0.0355 -5.63337,2.15839 -5.63337,3.67888 0,0.5446 -1.35,2.0248 -3,3.28932 -1.65,1.26452 -3,2.90683 -3,3.64957 0,0.74274 -0.45,1.35043 -1,1.35043 -0.55,0 -1,0.46517 -1,1.0337 0,0.56854 -1.2375,2.2607 -2.75,3.76035 -1.5125,1.49965 -3.38854,3.95949 -4.16898,5.4663 -0.78044,1.50681 -2.01794,2.73965 -2.75,2.73965 -0.73206,0 -1.33102,0.85186 -1.33102,1.89301 0,1.04116 -0.675,2.15203 -1.5,2.46862 -0.825,0.31658 -1.5,1.26472 -1.5,2.10699 0,0.84226 -0.45,1.53138 -1,1.53138 -0.55,0 -1,0.48002 -1,1.06672 0,0.5867 -1.125,2.54167 -2.5,4.34439 -1.375,1.80272 -2.5,3.7977 -2.5,4.43328 0,0.63559 -0.45,1.15561 -1,1.15561 -0.55,0 -1.01044,0.5625 -1.0232,1.25 -0.0128,0.6875 -1.58811,3.05 -3.50076,5.25 -5.75597,6.6207 -5.98546,6.93049 -5.72604,7.72976 0.1375,0.42363 -0.43912,0.77024 -1.28138,0.77024 -0.84227,0 -1.82959,0.7875 -2.19405,1.75 -0.79575,2.10147 -2.80793,4.25 -3.98028,4.25 -0.46671,0 -2.21256,1.2375 -3.87967,2.75 -3.1001,2.8126 -11.22461,7.25 -13.274151,7.25 C 97.513211,266 97,266.42243 97,266.93873 c 0,0.5163 -2.025,1.24239 -4.5,1.61354 -2.475,0.37115 -4.5,1.07372 -4.5,1.56127 C 88,270.60109 83.95,271 79,271 c -5.333333,0 -9,-0.40741 -9,-1 0,-0.55 -1.082475,-1 -2.405499,-1 -2.223613,0 -9.350297,-3.16241 -12.394587,-5.5 C 52.113279,261.12989 46,254.76458 46,253.92079 46,253.41436 45.305273,253 44.456163,253 c -0.84911,0 -1.435888,-0.5625 -1.303951,-1.25 C 43.49069,249.98626 42.027772,246 41.042018,246 40.228425,246 39.431382,242.51724 38.35299,234.25 37.992757,231.48836 38.184078,230 38.899306,230 39.504688,230 40,229.26211 40,228.36024 c 0,-3.7255 9.068947,-6.22891 10.361626,-2.86024 0.316583,0.825 1.264728,1.5 2.106989,1.5 C 53.310877,227 54,227.83931 54,228.86514 c 0,1.02583 0.7875,2.93833 1.75,4.25 0.9625,1.31167 2.608362,4.07236 3.657471,6.13486 1.049108,2.0625 2.489248,3.75 3.200309,3.75 0.711062,0 1.6527,0.58336 2.09253,1.29636 2.714799,4.40089 20.252978,8.26743 21.466357,4.73256 0.183333,-0.5341 1.280033,-1.11423 2.43711,-1.28918 1.157078,-0.17496 3.278745,-1.08797 4.714817,-2.02892 C 94.754666,244.76987 96.210604,244 96.554013,244 c 0.343409,0 2.496741,-2.0011 4.785187,-4.44689 5.58512,-5.96915 6.6608,-7.31449 6.6608,-8.33057 0,-0.47403 1.0125,-1.81182 2.25,-2.97287 3.77874,-3.5453 6.75,-8.27119 6.75,-10.7361 0,-0.83246 0.45,-1.51357 1,-1.51357 0.55,0 1,-0.675 1,-1.5 0,-0.825 0.40122,-1.5 0.89159,-1.5 0.49038,0 1.17395,-1.125 1.51905,-2.5 0.34511,-1.375 1.06889,-2.5 1.60841,-2.5 0.53952,0 0.98095,-0.675 0.98095,-1.5 0,-0.825 0.33827,-1.5 0.75172,-1.5 0.41344,0 1.86493,-2.1375 3.22553,-4.75 1.36059,-2.6125 2.76493,-4.975 3.12074,-5.25 0.35582,-0.275 1.9015,-2.83243 3.43485,-5.68318 1.53336,-2.85075 3.84075,-6.31861 5.12754,-7.70636 C 140.94717,180.22272 142,178.823 142,178.49998 c 0,-0.32301 2.475,-3.00367 5.5,-5.95702 3.025,-2.95334 5.50684,-5.74619 5.51519,-6.20634 0.0137,-0.75213 5.95729,-5.36799 12.02234,-9.33662 1.2608,-0.825 4.01814,-3.1875 6.12742,-5.25 C 173.27423,149.6875 175.45,148 176,148 c 0.55,0 1,-0.38705 1,-0.86012 0,-0.47307 1.575,-2.53011 3.5,-4.5712 1.925,-2.0411 3.5,-3.94156 3.5,-4.22325 0,-0.96871 6.59417,-6.85398 13.5414,-12.08567 3.82723,-2.88212 7.4086,-5.58332 7.9586,-6.00266 0.55,-0.41934 2.90734,-1.66123 5.23853,-2.75977 2.33119,-1.09853 4.24369,-2.33483 4.25,-2.74733 0.006,-0.4125 0.57397,-0.75388 1.26147,-0.75862 0.6875,-0.005 5.67802,-2.25474 11.09005,-5 C 232.75208,106.24612 238.00208,104 239.00672,104 c 1.00464,0 1.98015,-0.46061 2.16781,-1.02358 0.18765,-0.56296 2.13765,-1.30755 4.33333,-1.65463 2.19568,-0.34708 4.25576,-1.03099 4.57796,-1.5198 0.57629,-0.874269 7.66643,-2.013629 23.37991,-3.757065 11.02874,-1.223657 34.19393,1.218653 41.7795,4.404815 2.05987,0.86521 3.85987,1.53633 4,1.49139 0.14012,-0.045 1.52156,0.39991 3.06987,0.98857 1.5483,0.58867 3.22593,1.0703 3.72807,1.0703 0.50213,0 4.27703,1.575 8.38866,3.5 4.11163,1.925 7.9465,3.5 8.52193,3.5 0.57543,0 1.04624,0.45 1.04624,1 0,0.55 1.2375,1.00277 2.75,1.00616 1.5125,0.003 3.92499,0.61927 5.36108,1.36863 1.4361,0.74935 5.59387,1.68189 9.23948,2.0723 3.64562,0.39042 6.88469,1.12453 7.19794,1.63138 C 368.86174,118.58531 371.31492,119 374,119 c 2.68508,0 5.16008,0.45 5.5,1 0.80243,1.29836 6.19757,1.29836 7,0 0.33992,-0.55 1.49148,-1 2.55902,-1 1.06754,0 1.94098,-0.35134 1.94098,-0.78076 0,-0.42942 1.2375,-1.31308 2.75,-1.9637 1.5125,-0.65061 3.631,-1.76176 4.70777,-2.46923 1.84142,-1.20987 2.59523,-1.77547 5.75753,-4.32007 2.20057,-1.77072 9.77821,-5.46624 11.2085,-5.46624 0.74922,0 1.62124,-0.675 1.93783,-1.5 0.31658,-0.825 1.60222,-1.51431 2.85699,-1.5318 1.25476,-0.0175 3.15489,-0.6925 4.22251,-1.500003 C 425.50875,98.660688 426.99662,98 427.7475,98 c 1.467,0 4.19584,-2.765182 11.27372,-11.423828 2.46333,-3.013484 5.02375,-5.500912 5.68982,-5.527617 0.66608,-0.0267 2.01608,-0.905153 3,-1.952106 3.76714,-4.008453 7.78896,-3.167899 7.78896,1.627881 0,2.323381 0.32846,4.220137 0.72992,4.215013 1.27892,-0.01632 6.75718,-3.409453 6.76376,-4.189343 0.003,-0.4125 1.18883,-0.75 2.63413,-0.75 2.67677,0 2.983,6.225614 0.46485,9.450386 C 463.79929,92.387306 463.8907,104 466.2072,104 c 0.54471,0 2.25147,1.35 3.7928,3 1.54133,1.65 3.29688,3 3.90121,3 0.60433,0 1.09879,0.675 1.09879,1.5 0,0.825 0.675,1.5 1.5,1.5 0.825,0 1.5,0.59015 1.5,1.31144 0,0.72129 0.89297,2.26993 1.98438,3.44142 1.22857,1.31871 2.23321,4.24713 2.63768,7.68856 0.35932,3.05722 1.04135,5.55858 1.51562,5.55858 0.47428,0 0.86232,0.8449 0.86232,1.87756 0,1.03265 0.675,2.43775 1.5,3.12244 0.825,0.68469 1.5,1.86919 1.5,2.63223 0,0.76304 0.9,2.15795 2,3.0998 4.46233,3.82076 -0.85481,20.26797 -6.55234,20.26797 -0.29422,0 -1.75281,1.16313 -3.2413,2.58473 -2.95826,2.82531 -14.24432,3.07087 -19.20165,0.41779 -2.58023,-1.3809 -12.29753,-0.8046 -19.39673,1.15034 -6.91984,1.90555 -17.05051,12.03759 -21.84418,21.84714 -0.67193,1.375 -1.79366,2.85986 -2.49274,3.29969 -0.69908,0.43983 -1.27106,1.45233 -1.27106,2.25 0,0.79767 -0.34329,1.45031 -0.76287,1.45031 -0.76379,0 -2.57015,2.96304 -3.81019,6.25 -0.36311,0.9625 -1.05772,1.75 -1.54357,1.75 -0.48585,0 -0.90289,0.5625 -0.92675,1.25 -0.0845,2.43623 -17.42312,16.75 -20.28964,16.75 -0.79915,0 -1.69158,0.62173 -1.98318,1.38163 -0.2916,0.75989 -2.02725,1.63929 -3.85699,1.95422 -22.55856,3.88267 -20.32681,0.9322 -20.32681,26.87293 0,16.00869 -0.30263,21.22373 -1.25,21.54025 -0.6875,0.2297 -1.25,1.23884 -1.25,2.24253 C 360,277.18063 351.68462,286 349.62064,286 c -0.79969,0 -1.60397,0.37874 -1.78731,0.84164 C 347.39117,287.95807 337.22644,293 335.41784,293 334.63803,293 334,293.45 334,294 c 0,0.55 -0.92235,1 -2.04966,1 -1.12731,0 -3.30694,0.65017 -4.84362,1.44481 -10.30189,5.32732 -18.777,1.88271 -17.89715,-7.27408 0.43916,-4.57039 3.29016,-9.17073 5.68344,-9.17073 0.49116,0 1.15203,-0.675 1.46862,-1.5 0.31658,-0.825 1.39972,-1.5 2.40699,-1.5 1.00726,0 2.25888,-0.35757 2.78138,-0.79461 0.5225,-0.43703 3.65,-1.65181 6.95,-2.6995 10.81743,-3.43435 12.87607,-10.03133 5.97397,-19.14385 -0.7757,-1.02412 -1.42467,-2.48392 -1.44217,-3.24401 -0.0175,-0.76008 -0.99422,-2.93919 -2.17051,-4.84246 l -2.13871,-3.46051 -2.36129,2.74801 C 325.06258,247.07448 324,248.91609 324,249.65554 c 0,0.73945 -0.3375,1.34797 -0.75,1.35226 -0.4125,0.004 -1.25358,1.01679 -1.86906,2.25 -3.34539,6.70294 -4.61766,8.7422 -5.45418,8.7422 -0.50972,0 -0.92676,0.91412 -0.92676,2.03138 0,1.11727 -0.675,2.29041 -1.5,2.60699 -0.825,0.31659 -1.5,1.19732 -1.5,1.95719 0,3.30667 -11.11822,14.28339 -15.2891,15.09451 -1.76599,0.34343 -3.53199,1.11616 -3.92443,1.71718 -1.04789,1.60484 -27.02254,1.47165 -28.97478,-0.14857 -1.635,-1.35693 -2.81169,-0.7301 -2.81169,1.4978 0,1.59481 4.99275,7.24352 6.40236,7.24352 0.49987,0 2.38381,1.125 4.18653,2.5 1.80272,1.375 3.94519,2.5 4.76105,2.5 0.81587,0 1.65245,0.50716 1.85907,1.12702 0.50106,1.50318 12.6911,3.64347 27.30121,4.79346 5.29301,0.41663 9.056,12.63576 4.62206,15.00873 -3.44288,1.84257 -24.88218,2.08453 -35.63228,0.40214 z m 11.27591,-59.15909 C 285.99083,260.52752 286.75289,260 287.46939,260 c 2.60886,0 6.54183,-11.62801 9.47049,-28 0.44274,-2.475 1.35837,-5.96813 2.03474,-7.76251 1.75424,-4.65396 0.86569,-5.86836 -4.84836,-6.62635 -2.77423,-0.36802 -5.31411,-1.10608 -5.64418,-1.64013 -2.57214,-4.16182 -6.44172,0.0976 -6.46843,7.12006 -0.008,1.97509 -0.68378,5.80009 -1.50283,8.5 -0.81904,2.69991 -1.49404,6.31999 -1.5,8.04462 -0.006,1.72463 -0.68305,4.42463 -1.50466,6 -0.82161,1.57537 -1.49661,4.10181 -1.5,5.61431 -0.003,1.5125 -0.3879,2.75 -0.85447,2.75 -1.49827,0 -4.10258,7.83117 -2.80161,8.42447 2.11889,0.96631 13.0254,-0.0509 13.42583,-1.25221 z"
       id="path22" />
  </g>
</svg>
