<?xml version="1.0" encoding="UTF-8" standalone="no"?>
<!-- Created with Inkscape (http://www.inkscape.org/) -->

<svg
   width="108.08335mm"
   height="30.441898mm"
   viewBox="0 0 108.08335 30.441899"
   version="1.1"
   id="svg1"
   inkscape:version="1.4.3 (0d15f75, 2025-12-25)"
   sodipodi:docname="About.svg"
   xmlns:inkscape="http://www.inkscape.org/namespaces/inkscape"
   xmlns:sodipodi="http://sodipodi.sourceforge.net/DTD/sodipodi-0.dtd"
   xmlns="http://www.w3.org/2000/svg"
   xmlns:svg="http://www.w3.org/2000/svg">
  <sodipodi:namedview
     id="namedview1"
     pagecolor="#505050"
     bordercolor="#ffffff"
     borderopacity="1"
     inkscape:showpageshadow="0"
     inkscape:pageopacity="0"
     inkscape:pagecheckerboard="1"
     inkscape:deskcolor="#505050"
     inkscape:document-units="mm"
     inkscape:zoom="1.02"
     inkscape:cx="210.78431"
     inkscape:cy="241.17647"
     inkscape:window-width="1799"
     inkscape:window-height="1334"
     inkscape:window-x="-3"
     inkscape:window-y="8"
     inkscape:window-maximized="0"
     inkscape:current-layer="layer5" />
  <defs
     id="defs1">
    <rect
       x="0"
       y="70.939903"
       width="793.70081"
       height="187.7821"
       id="rect1" />
  </defs>
  <g
     inkscape:groupmode="layer"
     id="layer5"
     inkscape:label="Layer 1"
     transform="translate(-1.8611431e-5,0.07622771)">
    <path
       d="m 13.944618,2.6669722 9.2583,23.8886988 q 0.5715,1.3716 1.2192,1.905 0.6858,0.4953 1.2573,0.5334 v 0.762 q -0.9906,-0.0762 -2.4003,-0.0762 -1.3716,-0.0381 -2.8194,-0.0381 -1.6764,0 -3.1242,0.0381 -1.4478,0 -2.3622,0.0762 v -0.762 q 1.9431,-0.0762 2.4765,-0.6477 0.5334,-0.6096 -0.2286,-2.5527 l -6.7056,-18.097499 0.6858,-0.8382 -6.0959996,15.811499 q -0.7239,1.905 -0.8763,3.1242 -0.1524,1.2192 0.1905,1.905 0.3429,0.6858 1.143,0.9906 0.8001,0.2667 1.9811999,0.3048 v 0.762 q -1.2191999,-0.0762 -2.3621999,-0.0762 -1.143,-0.0381 -2.2859999,-0.0381 -0.8382,0 -1.6001999,0.0381 -0.72390001,0 -1.295399988569,0.0762 v -0.762 Q 0.83821858,28.803571 1.6383185,28.003471 q 0.8382,-0.8001 1.6002,-2.7813 L 11.963418,2.6669722 q 0.4572,0.0381 0.9906,0.0381 0.5334,0 0.9906,-0.0381 z m 3.3147,16.1162998 v 0.761999 H 5.9055184 l 0.381,-0.761999 z M 39.660555,9.5249719 q 2.9718,0 4.953,2.5146001 2.0193,2.4765 2.0193,7.543799 0,3.7719 -1.1811,6.1722 -1.1811,2.3622 -3.1623,3.4671 -1.9812,1.0668 -4.3053,1.0668 -1.638299,0 -3.162299,-0.6858 -1.4859,-0.7239 -2.4003,-2.2479 h 0.6477 q 0.762,1.0668 1.8288,1.6002 1.1049,0.4953 2.2098,0.4953 2.247899,0 3.352799,-2.3241 1.1049,-2.3622 1.1049,-7.2009 0,-3.200399 -0.4572,-5.143499 -0.4191,-1.9812 -1.2573,-2.8575 -0.8382,-0.9144 -2.0955,-0.9144 -1.485899,0 -2.743199,1.2573 -1.2192,1.2573 -1.4097,3.5814 l -0.2667,-1.0668 q 0.6096,-2.5146 2.286,-3.8862 1.7145,-1.3716001 4.038599,-1.3716001 z M 33.755056,-0.07622771 V 28.613071 q -0.8001,0.0381 -1.6383,0.3048 -0.8382,0.2286 -1.5621,0.6096 -0.7239,0.3429 -1.2573,0.8382 l -0.6096,-0.3048 q 0.1905,-0.5334 0.2286,-1.0668 0.0381,-0.5334 0.0381,-1.1049 V 4.4957721 q 0,-1.7144999 -0.5715,-2.5145999 -0.5334,-0.8382 -2.0193,-0.8382 V 0.34287227 q 1.2192,0.11429999 2.3622,0.11429999 1.4478,0 2.7051,-0.11429999 1.2573,-0.1524 2.3241,-0.41909998 z M 59.585235,9.5249719 q 2.6289,0 4.6482,1.0668001 2.0574,1.0287 3.2385,3.3147 1.2192,2.286 1.2192,6.019799 0,3.7338 -1.2192,6.0198 -1.1811,2.286 -3.2385,3.3147 -2.0193,1.0287 -4.6482,1.0287 -2.6289,0 -4.6863,-1.0287 -2.0574,-1.0287 -3.2385,-3.3147 -1.1811,-2.286 -1.1811,-6.0198 0,-3.733799 1.1811,-6.019799 1.1811,-2.286 3.2385,-3.3147 2.0574,-1.0668001 4.6863,-1.0668001 z m 0,0.7620001 q -1.7907,0 -2.9337,2.286 -1.1049,2.2479 -1.1049,7.353299 0,5.1054 1.1049,7.3533 1.143,2.2479 2.9337,2.2479 1.7526,0 2.8956,-2.2479 1.143,-2.2479 1.143,-7.3533 0,-5.105399 -1.143,-7.353299 -1.143,-2.286 -2.8956,-2.286 z M 90.330349,9.6392719 V 25.641271 q 0,1.7145 0.5715,2.5527 0.5715,0.8001 2.0193,0.8001 v 0.8001 q -1.1811,-0.1143 -2.3622,-0.1143 -1.4097,0 -2.7051,0.1143 -1.2573,0.1143 -2.3241,0.4191 v -3.81 q -0.9525,2.0955 -2.6289,3.0099 -1.6383,0.8763 -3.5433,0.8763 -1.4859,0 -2.5146,-0.4191 -0.9906,-0.381 -1.6002,-1.0668 -0.6477,-0.7239 -0.9144,-1.905 -0.266699,-1.1811 -0.266699,-3.048 v -9.639299 q 0,-1.7145 -0.5715,-2.5146 -0.5334,-0.8382 -2.0193,-0.8382 v -0.8001 q 1.2192,0.1143 2.3622,0.1143 1.409699,0 2.666999,-0.1143 1.2954,-0.1524001 2.3622,-0.4191001 V 25.184071 q 0,1.0287 0.1524,1.8288 0.1905,0.8001 0.7239,1.2954 0.5334,0.4572 1.6002,0.4572 1.1811,0 2.1336,-0.6858 0.9525,-0.6858 1.4859,-1.8669 0.5715,-1.1811 0.5715,-2.667 v -9.334499 q 0,-1.7145 -0.5715,-2.5146 -0.5334,-0.8382 -2.0193,-0.8382 v -0.8001 q 1.2192,0.1143 2.3622,0.1143 1.4097,0 2.667,-0.1143 1.2954,-0.1524001 2.3622,-0.4191001 z M 102.59697,3.8099721 v 6.2864999 h 4.8768 v 0.762 h -4.8768 v 15.163799 q 0,1.3716 0.4953,1.9431 0.4953,0.5715 1.4097,0.5715 0.8763,0 1.6002,-0.6477 0.7239,-0.6858 1.2954,-2.2479 l 0.6858,0.3048 q -0.5715,1.8669 -1.7907,3.1242 -1.1811,1.2192 -3.3528,1.2192 -1.2954,0 -2.2098,-0.3429 -0.876303,-0.3048 -1.524003,-0.9144 -0.8382,-0.8763 -1.143,-2.0955 -0.2667,-1.2192 -0.2667,-3.2385 V 10.858472 h -3.3528 v -0.762 h 3.3528 V 4.8005721 q 1.3716,-0.0381 2.552703,-0.2667 1.1811,-0.2286 2.2479,-0.7239 z"
       id="text1"
       style="font-weight:600;font-size:38.1px;line-height:1.4;font-family:'Playfair Display';-inkscape-font-specification:'Playfair Display Semi-Bold';letter-spacing:0.722313px;word-spacing:0px;fill:#ffffff"
       aria-label="About" />
  </g>
</svg>
