<?xml version="1.0" encoding="UTF-8" standalone="no"?>
<!-- Created with Inkscape (http://www.inkscape.org/) -->

<svg
   width="142.59877mm"
   height="30.3657mm"
   viewBox="0 0 142.59877 30.3657"
   version="1.1"
   id="svg1"
   inkscape:version="1.4.3 (0d15f75, 2025-12-25)"
   sodipodi:docname="product.svg"
   xmlns:inkscape="http://www.inkscape.org/namespaces/inkscape"
   xmlns:sodipodi="http://sodipodi.sourceforge.net/DTD/sodipodi-0.dtd"
   xmlns="http://www.w3.org/2000/svg"
   xmlns:svg="http://www.w3.org/2000/svg">
  <sodipodi:namedview
     id="namedview1"
     pagecolor="#505050"
     bordercolor="#ffffff"
     borderopacity="1"
     inkscape:showpageshadow="0"
     inkscape:pageopacity="0"
     inkscape:pagecheckerboard="1"
     inkscape:deskcolor="#505050"
     inkscape:document-units="mm"
     inkscape:zoom="1.02"
     inkscape:cx="210.78431"
     inkscape:cy="241.17647"
     inkscape:window-width="1799"
     inkscape:window-height="1334"
     inkscape:window-x="-3"
     inkscape:window-y="8"
     inkscape:window-maximized="0"
     inkscape:current-layer="svg1" />
  <defs
     id="defs1">
    <rect
       x="0"
       y="70.939903"
       width="793.70081"
       height="187.7821"
       id="rect1" />
  </defs>
  <path
     style="font-weight:600;font-size:144px;line-height:1.4;font-family:'Playfair Display';-inkscape-font-specification:'Playfair Display Semi-Bold';letter-spacing:2.73px;word-spacing:0px;white-space:pre;fill:#ffffff;stroke-width:1"
     d="m 0,2.8575 q 0.95249997,0.0381 2.4384,0.0762 1.4859,0.0381 2.9717999,0.0381 1.8669,0 3.5433004,-0.0381 Q 10.6299,2.8956 11.3157,2.8956 q 5.1054,0 7.5819,2.0954999 2.5146,2.0955 2.5146,5.4102001 0,1.3716 -0.4953,2.8956 -0.4953,1.4859 -1.7145,2.7813 -1.2192,1.2573 -3.3528,2.0574 -2.0955,0.8001 -5.3721,0.8001 H 6.6674999 v -0.762 H 10.0965 q 2.4003,0 3.6576,-1.0287 1.2954,-1.0287 1.7145,-2.7051 0.4572,-1.6764 0.4572,-3.6195 0,-3.6195001 -1.1811,-5.4102001 Q 13.5636,3.6195 10.668,3.6195 q -1.5620997,0 -2.0573997,0.6476999 -0.4572004,0.6477 -0.4572004,2.6289 V 25.6413 q 0,1.4478 0.3048,2.1717 0.3048004,0.7239 1.1811001,0.9525 0.8763,0.2286 2.5146,0.2667 v 0.8001 Q 11.049,29.7561 9.2964,29.7561 7.5437999,29.718 5.6768999,29.718 q -1.6002,0 -3.0860999,0.0381 -1.4859,0 -2.5908,0.0762 v -0.762 Q 1.2573,28.9941 1.8669,28.7655 2.5146,28.5369 2.7051,27.8511 2.9337,27.1653 2.9337,25.7937 V 6.8960999 q 0,-1.4097 -0.2286,-2.0574 Q 2.5146,4.1528999 1.8669,3.9243 1.2573,3.6576 0,3.6195 Z m 36.688704,6.7437003 q 1.1811,0 1.9431,0.4952997 0.8001,0.4953 1.1811,1.2573 0.381,0.762 0.381,1.6002 0,1.2573 -0.762,2.0955 -0.7239,0.8382 -1.9431,0.8382 -1.143,0 -1.8669,-0.6096 -0.7239,-0.6096 -0.7239,-1.6764 0,-0.9525 0.4572,-1.6002 0.4953,-0.6477 1.1049,-1.0287 -0.4191,-0.2286 -0.9525,-0.1524 -0.9144,0.0762 -1.6764,0.6477 -0.762,0.5715 -1.2954,1.4097 -0.5334,0.8382 -0.8382,1.7907 -0.2667,0.9525 -0.2667,1.8288 v 9.4107 q 0,1.8669 0.9525,2.5146 0.9525,0.6096 2.7813,0.6096 v 0.8001 q -0.8763,-0.0381 -2.5527,-0.0762 -1.6383,-0.0762 -3.429,-0.0762 -1.4859,0 -2.9718,0.0762 -1.447801,0.0381 -2.171701,0.0762 v -0.8001 q 1.409701,0 1.981201,-0.5715 0.6096,-0.5715 0.6096,-2.1717 V 14.2875 q 0,-1.7145 -0.5715,-2.5146 -0.5334,-0.8382 -2.019301,-0.8382 v -0.8001 q 1.219201,0.1143 2.362201,0.1143 1.4097,0 2.667,-0.1143 1.2954,-0.1523997 2.3622,-0.4190997 V 13.6779 q 0.4572,-1.0668 1.1811,-1.9812 0.762,-0.9144 1.7907,-1.4859 1.0668,-0.6095997 2.286,-0.6095997 z m 14.62877,0 q 2.6289,0 4.6482,1.0667997 2.0574,1.0287 3.2385,3.3147 1.2192,2.286 1.2192,6.0198 0,3.7338 -1.2192,6.0198 -1.1811,2.286 -3.2385,3.3147 -2.0193,1.0287 -4.6482,1.0287 -2.6289,0 -4.6863,-1.0287 -2.0574,-1.0287 -3.2385,-3.3147 -1.1811,-2.286 -1.1811,-6.0198 0,-3.7338 1.1811,-6.0198 1.1811,-2.286 3.2385,-3.3147 2.0574,-1.0667997 4.6863,-1.0667997 z m 0,0.7619997 q -1.7907,0 -2.9337,2.286 -1.1049,2.2479 -1.1049,7.3533 0,5.1054 1.1049,7.3533 1.143,2.2479 2.9337,2.2479 1.7526,0 2.8956,-2.2479 1.143,-2.2479 1.143,-7.3533 0,-5.1054 -1.143,-7.3533 -1.143,-2.286 -2.8956,-2.286 z M 81.910186,0 v 25.6794 q 0,1.7145 0.5715,2.5527 0.5715,0.8001 2.0193,0.8001 v 0.8001 q -1.1811,-0.1143 -2.3622,-0.1143 -1.4097,0 -2.667,0.1143 -1.2573,0.1143 -2.3622,0.4191 V 4.5719999 q 0,-1.7144999 -0.5715,-2.5145999 -0.5334,-0.8382 -2.0193,-0.8382 V 0.41909999 q 1.2192,0.11430004 2.3622,0.11430004 1.4478,0 2.7051,-0.11430004 Q 80.843386,0.2667 81.910186,0 Z m -9.1059,9.6012003 q 1.6764,0 3.0099,0.6476997 1.3335,0.6477 1.9812,2.1717 l -0.4572,0.381 q -0.5334,-1.1049 -1.4478,-1.6383 -0.9144,-0.5334 -2.0574,-0.5334 -2.0574,0 -3.3147,2.3241 -1.2192,2.286 -1.2192,7.0485 0,3.2004 0.4953,5.1816 0.4953,1.9431 1.4097,2.8194 0.9525,0.8763 2.2479,0.8763 1.3716,0 2.4765,-1.1049 1.1049,-1.143 1.2954,-3.2385 l 0.2667,1.0668 q -0.4953,2.3241 -1.8669,3.5433 -1.3716,1.2192 -3.6195,1.2192 -2.286,0 -4.0767,-1.1049 -1.7526,-1.143 -2.7432,-3.429 -0.9525,-2.3241 -0.9525,-5.8674 0,-3.4671 1.143,-5.7531 1.143,-2.3241 3.0861,-3.4671 1.9431,-1.1429997 4.3434,-1.1429997 z m 32.535854,0.1143 V 25.7175 q 0,1.7145 0.5715,2.5527 0.5715,0.8001 2.0193,0.8001 v 0.8001 q -1.1811,-0.1143 -2.3622,-0.1143 -1.4097,0 -2.7051,0.1143 -1.2573,0.1143 -2.3241,0.4191 v -3.81 q -0.95251,2.0955 -2.628902,3.0099 -1.6383,0.8763 -3.5433,0.8763 -1.4859,0 -2.5146,-0.4191 -0.9906,-0.381 -1.6002,-1.0668 -0.6477,-0.7239 -0.9144,-1.905 -0.2667,-1.1811 -0.2667,-3.048 v -9.6393 q 0,-1.7145 -0.5715,-2.5146 -0.5334,-0.8382 -2.0193,-0.8382 v -0.8001 q 1.2192,0.1143 2.3622,0.1143 1.4097,0 2.667,-0.1143 1.2954,-0.1523997 2.3622,-0.4190997 V 25.2603 q 0,1.0287 0.1524,1.8288 0.1905,0.8001 0.7239,1.2954 0.5334,0.4572 1.6002,0.4572 1.1811,0 2.1336,-0.6858 0.952502,-0.6858 1.485892,-1.8669 0.57151,-1.1811 0.57151,-2.667 v -9.3345 q 0,-1.7145 -0.57151,-2.5146 -0.53339,-0.8382 -2.019292,-0.8382 v -0.8001 q 1.219202,0.1143 2.362202,0.1143 1.4097,0 2.667,-0.1143 1.2954,-0.1523997 2.3622,-0.4190997 z m 14.81931,-0.1143 q 1.4097,0 2.5908,0.3429 1.2192,0.3047997 2.0955,0.8762997 0.9144,0.5715 1.4478,1.4478 0.5334,0.8382 0.5334,1.8669 0,1.2573 -0.762,2.0193 -0.762,0.762 -1.905,0.762 -1.1811,0 -1.9431,-0.6858 -0.7239,-0.6858 -0.7239,-1.8288 0,-1.1049 0.6477,-1.8288 0.6477,-0.7239 1.5621,-0.9525 -0.3429,-0.4953 -1.0668,-0.8001 -0.7239,-0.3429 -1.6002,-0.3429 -1.143,0 -2.0574,0.6096 -0.9144,0.5715 -1.6002,1.7526 -0.6477,1.143 -1.0287,2.8575 -0.3429,1.6764 -0.3429,3.8862 0,3.0861 0.7239,4.8768 0.762,1.7907 1.9431,2.5527 1.1811,0.7239 2.5146,0.7239 0.8001,0 1.7145,-0.3048 0.9144,-0.3048 1.7907,-1.0287 0.9144,-0.7239 1.6383,-2.0574 l 0.7239,0.2667 q -0.4191,1.3335 -1.3716,2.667 -0.9144,1.3335 -2.4003,2.2098 -1.4859,0.8763 -3.6195,0.8763 -2.4384,0 -4.4196,-1.1049 -1.9812,-1.143 -3.1623,-3.429 -1.143,-2.286 -1.143,-5.6769 0,-3.3528 1.1811,-5.6769 1.1811,-2.3622 3.2766,-3.6195 2.1336,-1.2572997 4.7625,-1.2572997 z M 137.11237,3.8862 v 6.2865 h 4.8768 v 0.762 h -4.8768 v 15.1638 q 0,1.3716 0.4953,1.9431 0.4953,0.5715 1.4097,0.5715 0.8763,0 1.6002,-0.6477 0.7239,-0.6858 1.2954,-2.2479 l 0.6858,0.3048 q -0.5715,1.8669 -1.7907,3.1242 -1.1811,1.2192 -3.3528,1.2192 -1.2954,0 -2.2098,-0.3429 -0.8763,-0.3048 -1.524,-0.9144 -0.8382,-0.8763 -1.143,-2.0955 -0.2667,-1.2192 -0.2667,-3.2385 V 10.9347 h -3.3528 v -0.762 h 3.3528 V 4.8767999 q 1.3716,-0.0381 2.5527,-0.2667 1.1811,-0.2286 2.2479,-0.7238999 z"
     id="text1"
     aria-label="Product" />
</svg>
